<svg width="24" height="24" viewBox="0 0 24 24" fill="none" xmlns="http://www.w3.org/2000/svg">
<path fill-rule="evenodd" clip-rule="evenodd" d="M9.27244 8.57143C9.27244 7.88944 9.5598 7.23539 10.0713 6.75315C10.5828 6.27092 11.2766 6 12 6C12.7234 6 13.4172 6.27092 13.9287 6.75315C14.4402 7.23539 14.7276 7.88944 14.7276 8.57143C14.7276 9.25341 14.4402 9.90746 13.9287 10.3897C13.4172 10.8719 12.7234 11.1429 12 11.1429C11.2766 11.1429 10.5828 10.8719 10.0713 10.3897C9.5598 9.90746 9.27244 9.25341 9.27244 8.57143ZM7.00007 16.6314C7.02051 15.394 7.55628 14.2137 8.49172 13.3455C9.42717 12.4772 10.6873 11.9905 12 11.9905C13.3127 11.9905 14.5728 12.4772 15.5083 13.3455C16.4437 14.2137 16.9795 15.394 16.9999 16.6314C17.0015 16.7147 16.9773 16.7967 16.9302 16.8672C16.8832 16.9377 16.8154 16.9938 16.7351 17.0286C15.2495 17.6707 13.6342 18.0021 12 18C10.3113 18 8.70692 17.6526 7.26495 17.0286C7.18463 16.9938 7.1168 16.9377 7.06975 16.8672C7.02271 16.7967 6.9985 16.7147 7.00007 16.6314Z" fill="#c9c9c9"/>
</svg>
